# xmcd
#
# Track frame offsets: 
#        150
#        23772
#        51009
#        66800
#        86333
#        116732
#        133280
#        150626
#        174953
#        195077
#        217914
#        247157
#        273179
#
# Disc length: 3928 seconds
#
# Revision: 1
# Processed by: cddbd v1.5.2PL0 Copyright (c) Steve Scherf et al.
# Submitted via: ExactAudioCopy v0.95a5
#
DISCID=a90f560d
DTITLE=Jazz Lounge (Various Artists) - Fine And Mellow
DYEAR=2003
DGENRE=Jazz
TTITLE0=Wave
TTITLE1=Little Girl Blue
TTITLE2=I Didn't Know What Time It Was
TTITLE3=Li'l Darlin'
TTITLE4=This Masquerade
TTITLE5=Stairway To The Stars (Take 2)
TTITLE6=How Long Has This Been Going On?
TTITLE7=You Go To My Head
TTITLE8=One For My Baby (And One For More The Road)
TTITLE9=It Had To Be You
TTITLE10=Alone Together
TTITLE11=Fine And Mellow
TTITLE12=It Took So Long
EXTD=YEAR: 2003
EXTT0=
EXTT1=
EXTT2=
EXTT3=
EXTT4=
EXTT5=
EXTT6=
EXTT7=
EXTT8=
EXTT9=
EXTT10=
EXTT11=
EXTT12=
PLAYORDER=
